<svg width="32" height="32" viewBox="0 0 32 32" fill="none" xmlns="http://www.w3.org/2000/svg">
<g id="add_home">
<mask id="mask0_30_269" style="mask-type:alpha" maskUnits="userSpaceOnUse" x="0" y="0" width="32" height="32">
<rect id="Bounding box" width="32" height="32" fill="#D9D9D9"/>
</mask>
<g mask="url(#mask0_30_269)">
<path id="add_home_2" d="M23.3335 25.3333H24.6668V22H28.0002V20.6666H24.6668V17.3333H23.3335V20.6666H20.0002V22H23.3335V25.3333ZM24.0002 28C22.1557 28 20.5835 27.35 19.2835 26.05C17.9835 24.75 17.3335 23.1778 17.3335 21.3333C17.3335 19.4889 17.9835 17.9166 19.2835 16.6166C20.5835 15.3166 22.1557 14.6666 24.0002 14.6666C25.8446 14.6666 27.4168 15.3166 28.7168 16.6166C30.0168 17.9166 30.6668 19.4889 30.6668 21.3333C30.6668 23.1778 30.0168 24.75 28.7168 26.05C27.4168 27.35 25.8446 28 24.0002 28ZM5.3335 25.3333V9.33331L16.0002 1.33331L26.6668 9.33331V12.4C26.2446 12.2666 25.8113 12.1666 25.3668 12.1C24.9224 12.0333 24.4668 12 24.0002 12V10.6666L16.0002 4.66665L8.00016 10.6666V22.6666H14.7668C14.8335 23.1333 14.9335 23.5889 15.0668 24.0333C15.2002 24.4778 15.3668 24.9111 15.5668 25.3333H5.3335Z" fill="#054D3E"/>
</g>
</g>
</svg>
