<svg width="24" height="24" viewBox="0 0 24 24" fill="none" xmlns="http://www.w3.org/2000/svg">
<g id="babys-room">
<path id="Vector" d="M14.0078 0.994158C13.8847 0.995278 13.7629 1.01912 13.6484 1.06447C12.979 1.31663 12.1835 1.8676 11.6387 2.73244C11.1879 2.38104 10.6972 2.14924 10.2539 2.03322C10.1574 2.00604 10.0573 1.99353 9.95703 1.99611C9.71523 2.00301 9.48412 2.09731 9.30652 2.26155C9.12893 2.4258 9.01688 2.64884 8.99113 2.88937C8.96539 3.12989 9.02769 3.3716 9.1665 3.56971C9.30532 3.76781 9.51123 3.9089 9.74609 3.96681C9.92819 4.01448 10.0964 4.08024 10.2559 4.16408C6.75224 4.81784 4.0885 7.40992 3.58008 10.7793C2.66008 11.1593 2 12.0696 2 13.0996C2 14.1896 2.66961 15.111 3.59961 15.461C4.32961 17.681 6.76 21 12 21C17.24 21 19.6704 17.681 20.4004 15.461C21.3304 15.111 22 14.1896 22 13.0996C22 12.0696 21.3399 11.1593 20.4199 10.7793C19.8822 7.21573 16.9325 4.52463 13.1289 4.07424C13.361 3.36796 13.8701 3.11692 14.3516 2.93556C14.5737 2.85584 14.7605 2.70012 14.8789 2.49594C14.9973 2.29176 15.0397 2.05228 14.9985 1.81987C14.9574 1.58746 14.8354 1.37709 14.6541 1.22598C14.4727 1.07487 14.2438 0.992754 14.0078 0.994158ZM9.5 10C10.33 10 11 10.67 11 11.5C11 12.33 10.33 13 9.5 13C8.67 13 8 12.33 8 11.5C8 10.67 8.67 10 9.5 10ZM14.5 10C15.33 10 16 10.67 16 11.5C16 12.33 15.33 13 14.5 13C13.67 13 13 12.33 13 11.5C13 10.67 13.67 10 14.5 10ZM10.0762 14.5488C10.1824 14.5622 10.2884 14.5922 10.3906 14.6387C11.3486 15.0747 12.6494 15.0747 13.6074 14.6387C14.0164 14.4527 14.4884 14.5297 14.7734 14.8887L14.7793 14.8945C15.1813 15.4015 15.0114 16.1693 14.4414 16.4473C13.7084 16.8043 12.863 17 12 17C11.137 17 10.2906 16.8043 9.55664 16.4473C8.98664 16.1693 8.8187 15.4015 9.2207 14.8945L9.22461 14.8887C9.43836 14.6194 9.75752 14.5089 10.0762 14.5488Z" fill="#898C80"/>
</g>
</svg>
