<svg width="24" height="24" viewBox="0 0 24 24" fill="none" xmlns="http://www.w3.org/2000/svg">
<g id="balcony">
<path id="Vector" d="M7.00002 2V10H9.00002V4H11V10H13V4H15V10H17V2H7.00002ZM4.02737 11C3.76215 11 3.5078 11.1054 3.32026 11.2929C3.13272 11.4804 3.02737 11.7348 3.02737 12C3.02744 12.2469 3.11885 12.4851 3.284 12.6686C3.44915 12.8521 3.67637 12.9681 3.9219 12.9941C3.32679 14.3164 3.00306 15.6577 3.00002 16.9961C2.99664 18.512 3.38439 20.0109 4.11916 21.4531L4.39651 22H7.83205C7.94004 22.0178 8.05023 22.0178 8.15823 22H11.8321C11.94 22.0178 12.0502 22.0178 12.1582 22H15.8321C15.94 22.0178 16.0502 22.0178 16.1582 22H19.5996L19.875 21.4492C20.6111 19.9826 20.9944 18.4884 21 17.0039C21.005 15.641 20.6756 14.2965 20.0762 12.9961C20.3273 12.9769 20.562 12.8637 20.7332 12.679C20.9045 12.4943 20.9998 12.2519 21 12C21 11.7348 20.8947 11.4804 20.7071 11.2929C20.5196 11.1054 20.2652 11 20 11C19.7348 11 19.4804 11.1054 19.2929 11.2929C19.1054 11.4804 19 11.7348 19 12H18.9824H16.1543C16.0982 11.9906 16.0413 11.986 15.9844 11.9863C15.936 11.9874 15.8876 11.9919 15.8399 12H12.1543C12.0982 11.9906 12.0413 11.986 11.9844 11.9863C11.936 11.9874 11.8876 11.9919 11.8399 12H8.15432C8.09817 11.9906 8.04132 11.986 7.9844 11.9863C7.93595 11.9874 7.88765 11.9919 7.83987 12H5.02737C5.02737 11.7348 4.92201 11.4804 4.73447 11.2929C4.54694 11.1054 4.29258 11 4.02737 11ZM5.76369 14H7.00002V20H5.76174C5.3275 18.9926 4.9978 17.9967 5.00002 17.002C5.00223 16.0284 5.32997 15.0234 5.76369 14ZM9.00002 14H11V20H9.00002V14ZM13 14H15V20H13V14ZM17 14H18.2324C18.6717 15.0049 19.0037 15.9981 19 16.9961C18.9963 17.9675 18.6656 18.9736 18.2285 20H17V14Z" fill="#898C80"/>
</g>
</svg>
