<svg width="24" height="24" viewBox="0 0 24 24" fill="none" xmlns="http://www.w3.org/2000/svg">
<g id="cloakroom" clip-path="url(#clip0_1481_168)">
<path id="Vector" d="M12 0C10.3555 0 9 1.35547 9 3C9 4.26953 9.81641 5.12891 10.375 5.5625C10.6523 5.77734 10.8828 5.94531 10.9688 6.03125C10.9961 6.05859 10.9961 6.0625 11 6.0625V6.46875C10.6367 6.71094 9.10938 7.75 7.15625 9.0625C6.07031 9.79297 4.96094 10.5195 4.09375 11.0938C3.66016 11.3789 3.3125 11.6328 3.03125 11.8125C2.75 11.9922 2.48828 12.1289 2.5625 12.0938L2.5 12.125L2.46875 12.1562C1.93359 12.4961 1.39453 12.8086 0.90625 13.2812C0.417969 13.7539 0 14.4883 0 15.3125C0 16.1367 0.386719 16.8828 0.96875 17.3438C1.55078 17.8047 2.26953 18 3 18H4V16H3C2.63281 16 2.36328 15.8945 2.21875 15.7812C2.07422 15.668 2 15.5898 2 15.3125C2 15.0352 2.04297 14.9492 2.28125 14.7188C2.5 14.5078 2.92969 14.2305 3.4375 13.9062C3.44922 13.8984 3.45703 13.8828 3.46875 13.875C3.49219 13.8594 3.50391 13.8594 3.53125 13.8438C3.70312 13.75 3.84375 13.6602 4.09375 13.5C4.38672 13.3125 4.78125 13.0703 5.21875 12.7812C6.09375 12.2031 7.19141 11.4492 8.28125 10.7188C10.1562 9.45703 11.5 8.53906 11.9688 8.21875L20.4375 13.8438H20.4688C21.0156 14.1914 21.4492 14.4922 21.6875 14.75C21.9258 15.0078 22 15.1484 22 15.5C22 15.8008 21.9648 15.7969 21.9062 15.8438C21.8477 15.8906 21.582 16 21 16H20V18H21C21.8203 18 22.5352 17.8594 23.125 17.4062C23.7148 16.9531 24 16.1992 24 15.5C24 14.6484 23.6406 13.8945 23.1562 13.375C22.6797 12.8672 22.1055 12.5312 21.5625 12.1875C21.5586 12.1836 21.5664 12.1602 21.5625 12.1562H21.5312L13 6.4375V6C13 5.42188 12.6953 4.92188 12.4062 4.625C12.1172 4.32812 11.8477 4.14062 11.625 3.96875C11.1836 3.625 11 3.53125 11 3C11 2.44531 11.4453 2 12 2C12.5547 2 13 2.44531 13 3H15C15 1.35547 13.6445 0 12 0ZM5 14V24H19V14H5Z" fill="#898C80"/>
</g>
<defs>
<clipPath id="clip0_1481_168">
<rect width="24" height="24" fill="white"/>
</clipPath>
</defs>
</svg>
