<svg width="30" height="31" viewBox="0 0 30 31" fill="none" xmlns="http://www.w3.org/2000/svg">
<g id="9035692_color_wand_sharp_icon 1">
<path id="Vector" d="M11.7561 8.92136L7.81885 12.8586L12.3975 17.4373L16.3348 13.5L11.7561 8.92136Z" fill="#4D3A00"/>
<path id="Vector_2" d="M17.6608 14.8252L13.7239 18.7627L24.1407 29.227L28.125 25.2426L17.6608 14.8252Z" fill="#4D3A00"/>
<path id="Vector_3" d="M6.5625 11.4146H1.875V13.2896H6.5625V11.4146Z" fill="#4D3A00"/>
<path id="Vector_4" d="M5.28823 5.06419L3.9624 6.39001L7.27697 9.70458L8.60279 8.37875L5.28823 5.06419Z" fill="#4D3A00"/>
<path id="Vector_5" d="M12.1875 2.97705H10.3125V7.66455H12.1875V2.97705Z" fill="#4D3A00"/>
<path id="Vector_6" d="M17.2201 5.06446L13.9055 8.37903L15.2313 9.70485L18.5459 6.39029L17.2201 5.06446Z" fill="#4D3A00"/>
<path id="Vector_7" d="M7.27672 15.0073L3.96216 18.3219L5.28798 19.6477L8.60255 16.3332L7.27672 15.0073Z" fill="#4D3A00"/>
</g>
</svg>
