<svg width="24" height="24" viewBox="0 0 24 24" fill="none" xmlns="http://www.w3.org/2000/svg">
<g id="corridor">
<path id="Vector" d="M14 8H10L3.004 2.753C2.59 2.443 2 2.738 2 3.254V6.265L3.602 7.462C3.852 7.65 4 7.944 4 8.257V15.725C4 16.037 3.853 16.331 3.603 16.519L2 17.722V20.746C2 21.263 2.59 21.558 3.004 21.248L10 16H14L20.996 21.247C21.41 21.557 22 21.262 22 20.746V17.774L20.397 16.572C20.147 16.383 20 16.089 20 15.777V8.181C20 7.868 20.148 7.574 20.398 7.386L22 6.189V3.254C22 2.737 21.41 2.442 20.996 2.752L14 8ZM8 11.189V12.775C8 13.056 7.867 13.321 7.642 13.49L6.532 14.322C6.313 14.487 6 14.33 6 14.056V9.91C6 9.636 6.313 9.48 6.532 9.644L7.641 10.473C7.867 10.642 8 10.907 8 11.189ZM13 14H11V10H13V14ZM16 12.826V11.113C16 10.831 16.133 10.566 16.359 10.397L17.468 9.568C17.687 9.404 18 9.561 18 9.835V14.108C18 14.382 17.687 14.539 17.467 14.374L16.357 13.542C16.132 13.372 16 13.107 16 12.826Z" fill="#898C80"/>
</g>
</svg>
