<svg width="30" height="31" viewBox="0 0 30 31" fill="none" xmlns="http://www.w3.org/2000/svg">
<g id="mdi:design">
<path id="Vector" d="M3.75005 22.6645V27.352H8.43755L22.2625 13.5145L17.575 8.82698L3.75005 22.6645ZM28.2626 24.052L22.9501 29.3645L16.45 22.8645L18.6625 20.652L19.9125 21.902L23 18.802L24.775 20.577L22.9501 22.352L24.275 23.602L26.05 21.852L28.2626 24.052ZM8.26255 14.6395L1.73755 8.15198L7.05005 2.83948L9.25005 5.05198L6.16255 8.15198L7.50005 9.47698L10.575 6.37698L12.35 8.15198L10.575 9.91448L11.825 11.1645L8.26255 14.6395ZM25.8875 9.85198C26.375 9.36448 26.375 8.60198 25.8875 8.08948L22.9626 5.21448C22.5001 4.72698 21.6875 4.72698 21.2 5.21448L18.9 7.50198L23.5876 12.1895L25.8875 9.85198Z" fill="#FBFCF4"/>
</g>
</svg>
