<svg width="24" height="24" viewBox="0 0 24 24" fill="none" xmlns="http://www.w3.org/2000/svg">
<g id="dining-room">
<path id="Vector" d="M5 0L4 7L6.1875 10L6 22C6 23.1016 6.90625 24 7.90625 24C9.10547 24 10 23.1016 10 22L9.8125 10L12 7L11 0H10V5.5C10 5.80078 9.80078 6 9.5 6C9.19922 6 9 5.80078 9 5.5C9 5.39844 8.59375 0 8.59375 0H7.40625C7.40625 0 7 5.39844 7 5.5C7 5.80078 6.80078 6 6.5 6C6.19922 6 6 5.80078 6 5.5V0H5ZM19.9062 0C18.8047 0 14.9062 2.69922 14.9062 6C14.9062 9.30078 16.9062 11.3984 16.9062 12.5C16.9062 14.6992 16.1055 18.207 15.9062 21.9062C15.8047 23.0078 16.7109 24 17.8125 24C18.9141 24 19.8047 23.1016 19.9062 22V0Z" fill="#898C80"/>
</g>
</svg>
