<svg width="40" height="40" viewBox="0 0 40 40" fill="none" xmlns="http://www.w3.org/2000/svg">
<g id="2315974_accomodation_cabin_hotel_house_villa_icon 1">
<g id="Layer_4">
<g id="Group">
<path id="Vector" d="M20.0017 0.037513L20.0001 0.0341797L19.9967 0.0358464L19.9926 0.0341797L19.9892 0.037513L7.20508 5.09918V7.06335V7.29501V9.26251L7.23591 9.34168L19.9967 4.29501L32.4151 9.20835L32.4226 9.21168L32.7576 9.34168L32.7601 9.33168L32.7951 9.34168V9.25001V9.03751V7.37835V7.28418V7.07001V7.06668V5.09918L20.0017 0.037513Z" fill="#898C80"/>
<path id="Vector_2" d="M30.6599 10.33L19.9983 6.20251L9.3366 10.3292V10.3492L7.2041 11.2442V37.8408V38.1433V39.9658H9.3366H30.6599H32.7924V38.1433V37.8408V11.2442L30.6599 10.3658V10.33ZM19.9983 37.835H11.4691V25.2025H19.9983V37.835ZM19.9983 19.4692H11.4691V13.0558H19.9983V19.4692ZM28.5266 31.4417H22.1299V25.2025H28.5266V31.4417ZM28.5266 19.4583H22.1299V13.0633H28.5266V19.4583Z" fill="#898C80"/>
</g>
</g>
</g>
</svg>
