<svg width="33" height="32" viewBox="0 0 33 32" fill="none" xmlns="http://www.w3.org/2000/svg">
<g id="favorite">
<mask id="mask0_1401_945" style="mask-type:alpha" maskUnits="userSpaceOnUse" x="0" y="0" width="33" height="32">
<rect id="Bounding box" x="0.333252" width="32" height="32" fill="#D9D9D9"/>
</mask>
<g mask="url(#mask0_1401_945)">
<path id="favorite_2" d="M16.3333 28L14.4 26.2667C12.1556 24.2444 10.3 22.5 8.83333 21.0333C7.36667 19.5667 6.2 18.25 5.33333 17.0833C4.46667 15.9167 3.86111 14.8444 3.51667 13.8667C3.17222 12.8889 3 11.8889 3 10.8667C3 8.77777 3.7 7.03333 5.1 5.63333C6.5 4.23333 8.24444 3.53333 10.3333 3.53333C11.4889 3.53333 12.5889 3.77777 13.6333 4.26666C14.6778 4.75555 15.5778 5.44444 16.3333 6.33333C17.0889 5.44444 17.9889 4.75555 19.0333 4.26666C20.0778 3.77777 21.1778 3.53333 22.3333 3.53333C24.4222 3.53333 26.1667 4.23333 27.5667 5.63333C28.9667 7.03333 29.6667 8.77777 29.6667 10.8667C29.6667 11.8889 29.4944 12.8889 29.15 13.8667C28.8056 14.8444 28.2 15.9167 27.3333 17.0833C26.4667 18.25 25.3 19.5667 23.8333 21.0333C22.3667 22.5 20.5111 24.2444 18.2667 26.2667L16.3333 28ZM16.3333 24.4C18.4667 22.4889 20.2222 20.85 21.6 19.4833C22.9778 18.1167 24.0667 16.9278 24.8667 15.9167C25.6667 14.9055 26.2222 14.0055 26.5333 13.2167C26.8444 12.4278 27 11.6444 27 10.8667C27 9.53333 26.5556 8.42221 25.6667 7.53333C24.7778 6.64444 23.6667 6.19999 22.3333 6.19999C21.2889 6.19999 20.3222 6.49444 19.4333 7.08333C18.5444 7.67221 17.9333 8.42221 17.6 9.33333H15.0667C14.7333 8.42221 14.1222 7.67221 13.2333 7.08333C12.3444 6.49444 11.3778 6.19999 10.3333 6.19999C9 6.19999 7.88889 6.64444 7 7.53333C6.11111 8.42221 5.66667 9.53333 5.66667 10.8667C5.66667 11.6444 5.82222 12.4278 6.13333 13.2167C6.44444 14.0055 7 14.9055 7.8 15.9167C8.6 16.9278 9.68889 18.1167 11.0667 19.4833C12.4444 20.85 14.2 22.4889 16.3333 24.4Z" fill="#054D3E"/>
</g>
</g>
</svg>
