<svg width="30" height="31" viewBox="0 0 30 31" fill="none" xmlns="http://www.w3.org/2000/svg">
<g id="gallery_thumbnail">
<mask id="mask0_778_2343" style="mask-type:alpha" maskUnits="userSpaceOnUse" x="0" y="0" width="30" height="31">
<rect id="Bounding box" y="0.36731" width="30" height="30" fill="#D9D9D9"/>
</mask>
<g mask="url(#mask0_778_2343)">
<path id="gallery_thumbnail_2" d="M3.33331 24.1173C2.7604 24.1173 2.26995 23.9133 1.86197 23.5053C1.45399 23.0974 1.25 22.6069 1.25 22.034V8.70062C1.25 8.12771 1.45399 7.63726 1.86197 7.22928C2.26995 6.8213 2.7604 6.61731 3.33331 6.61731H16.6667C17.2396 6.61731 17.7301 6.8213 18.138 7.22928C18.546 7.63726 18.75 8.12771 18.75 8.70062V22.034C18.75 22.6069 18.546 23.0974 18.138 23.5053C17.7301 23.9133 17.2396 24.1173 16.6667 24.1173H3.33331ZM22.5 14.1173C22.1458 14.1173 21.849 13.9975 21.6094 13.7579C21.3698 13.5184 21.25 13.2215 21.25 12.8673V7.86731C21.25 7.51314 21.3698 7.21627 21.6094 6.97668C21.849 6.7371 22.1458 6.61731 22.5 6.61731H27.5C27.8542 6.61731 28.151 6.7371 28.3906 6.97668C28.6302 7.21627 28.75 7.51314 28.75 7.86731V12.8673C28.75 13.2215 28.6302 13.5184 28.3906 13.7579C28.151 13.9975 27.8542 14.1173 27.5 14.1173H22.5ZM23.3333 12.034H26.6667V8.70062H23.3333V12.034ZM3.33331 22.034H16.6667V8.70062H3.33331V22.034ZM5 19.1173H15L11.7188 14.7423L9.375 17.8673L7.65625 15.5861L5 19.1173ZM22.5 24.1173C22.1458 24.1173 21.849 23.9975 21.6094 23.7579C21.3698 23.5184 21.25 23.2215 21.25 22.8673V17.8673C21.25 17.5131 21.3698 17.2163 21.6094 16.9767C21.849 16.7371 22.1458 16.6173 22.5 16.6173H27.5C27.8542 16.6173 28.151 16.7371 28.3906 16.9767C28.6302 17.2163 28.75 17.5131 28.75 17.8673V22.8673C28.75 23.2215 28.6302 23.5184 28.3906 23.7579C28.151 23.9975 27.8542 24.1173 27.5 24.1173H22.5ZM23.3333 22.034H26.6667V18.7006H23.3333V22.034Z" fill="#FBFCF4"/>
</g>
</g>
</svg>
