<svg width="48" height="45" viewBox="0 0 48 45" fill="none" xmlns="http://www.w3.org/2000/svg">
<g id="4172394_goods_merchandise_stock_supply_vendibles_icon 1" clip-path="url(#clip0_778_2383)">
<path id="Vector" d="M35.9342 17.1217L33.1798 7.14697L17.0852 11.6756L19.6545 21.6504L35.9342 17.1217Z" fill="#054D3E"/>
<path id="Vector_2" d="M15.5528 27.8838L15.5548 27.8926L18.1858 27.0975L11.8212 2.37354H0.928955V5.86133H8.80929L14.3612 28.2451L15.5528 27.8838Z" fill="#054D3E"/>
<path id="Vector_3" d="M46.3602 31.6017L46.0312 30.2181L29.2424 34.8888L30.5398 38.9601L47.0711 34.1446L46.4601 31.5743L46.3602 31.6017Z" fill="#054D3E"/>
<path id="Vector_4" d="M25.4992 33.5777L26.6938 32.3831L24.5279 30.2162L23.3342 31.4118C22.64 30.9515 21.8645 30.6088 21.0352 30.3934V28.6084H17.191V30.3934C16.344 30.6128 15.5509 30.9653 14.8449 31.4401L13.6992 30.2935L11.5333 32.4595L12.6985 33.6247C12.253 34.3062 11.9191 35.067 11.7086 35.8758H9.92456V39.718H11.7086C11.924 40.5474 12.2667 41.3248 12.7279 42.02L11.5333 43.2136L13.6992 45.3786L14.8938 44.184C15.59 44.6462 16.3685 44.9899 17.1998 45.2043V46.9864H21.0293V45.2043C21.842 44.9957 22.6028 44.6589 23.2872 44.2144L24.5288 45.455L26.6947 43.291L25.4718 42.0661C25.9496 41.3562 26.3041 40.5581 26.5214 39.7073H28.3035V35.8905H26.5214C26.307 35.0572 25.9633 34.2758 25.4992 33.5777ZM19.114 40.9479C17.3741 40.9479 15.9641 39.5379 15.9641 37.7969C15.9641 36.0579 17.3741 34.6469 19.114 34.6469C20.853 34.6469 22.264 36.0569 22.264 37.7969C22.264 39.5379 20.853 40.9479 19.114 40.9479Z" fill="#054D3E"/>
<path id="Vector_5" d="M21.4815 28.2451C25.358 27.5567 27.335 30.2308 27.335 30.2308C27.3418 30.2377 27.3487 30.2445 27.3555 30.2514C27.3849 30.2827 27.4084 30.3121 27.4358 30.3425C27.8245 30.8222 28.1056 31.5321 28.1056 31.5321L28.2691 32.0452L47.072 26.8517L44.3793 16.876L20.2673 23.4854L21.4815 28.2451Z" fill="#054D3E"/>
</g>
<defs>
<clipPath id="clip0_778_2383">
<rect width="47" height="47" fill="white" transform="translate(0.5 0.445312)"/>
</clipPath>
</defs>
</svg>
