<svg width="24" height="25" viewBox="0 0 24 25" fill="none" xmlns="http://www.w3.org/2000/svg">
<g id="arrow_circle_right">
<mask id="mask0_778_2349" style="mask-type:alpha" maskUnits="userSpaceOnUse" x="0" y="0" width="24" height="25">
<rect id="Bounding box" y="0.36731" width="24" height="24" fill="#D9D9D9"/>
</mask>
<g mask="url(#mask0_778_2349)">
<path id="arrow_circle_right_2" d="M12 16.3673L16 12.3673L12 8.36731L10.6 9.76731L12.2 11.3673H8V13.3673H12.2L10.6 14.9673L12 16.3673ZM12 22.3673C10.6167 22.3673 9.31667 22.1048 8.1 21.5798C6.88333 21.0548 5.825 20.3423 4.925 19.4423C4.025 18.5423 3.3125 17.484 2.7875 16.2673C2.2625 15.0506 2 13.7506 2 12.3673C2 10.984 2.2625 9.68398 2.7875 8.46731C3.3125 7.25064 4.025 6.19231 4.925 5.29231C5.825 4.39231 6.88333 3.67981 8.1 3.15481C9.31667 2.62981 10.6167 2.36731 12 2.36731C13.3833 2.36731 14.6833 2.62981 15.9 3.15481C17.1167 3.67981 18.175 4.39231 19.075 5.29231C19.975 6.19231 20.6875 7.25064 21.2125 8.46731C21.7375 9.68398 22 10.984 22 12.3673C22 13.7506 21.7375 15.0506 21.2125 16.2673C20.6875 17.484 19.975 18.5423 19.075 19.4423C18.175 20.3423 17.1167 21.0548 15.9 21.5798C14.6833 22.1048 13.3833 22.3673 12 22.3673ZM12 20.3673C14.2333 20.3673 16.125 19.5923 17.675 18.0423C19.225 16.4923 20 14.6006 20 12.3673C20 10.134 19.225 8.24231 17.675 6.69231C16.125 5.14231 14.2333 4.36731 12 4.36731C9.76667 4.36731 7.875 5.14231 6.325 6.69231C4.775 8.24231 4 10.134 4 12.3673C4 14.6006 4.775 16.4923 6.325 18.0423C7.875 19.5923 9.76667 20.3673 12 20.3673Z" fill="#054D3E"/>
</g>
</g>
</svg>
