<svg width="32" height="32" viewBox="0 0 32 32" fill="none" xmlns="http://www.w3.org/2000/svg">
<g id="home">
<g id="Vector">
<path d="M16.0002 15.4146C19.4076 15.4146 22.1798 18.1867 22.1798 21.5941C22.1798 25.0015 19.4076 27.7737 16.0002 27.7737C12.5928 27.7737 9.82071 25.0015 9.82071 21.5941C9.82071 18.1867 12.5928 15.4146 16.0002 15.4146ZM16.0002 12.5931C11.0289 12.5931 6.99921 16.6228 6.99921 21.5941C6.99921 26.5655 11.0289 30.5952 16.0002 30.5952C20.9716 30.5952 25.0012 26.5655 25.0012 21.5941C25.0012 16.6228 20.9716 12.5931 16.0002 12.5931Z" fill="#054D3E"/>
<path d="M27.0516 12.0565L24.9548 13.9437C23.8492 12.716 22.5125 11.7547 20.9811 11.0868C18.8387 10.1535 17.1154 8.57833 15.9995 6.64921C14.8854 8.5774 13.1612 10.1526 11.0188 11.0868C9.48741 11.7547 8.15072 12.7151 7.04503 13.9437L4.94824 12.0565C6.32499 10.5261 7.9877 9.33005 9.89074 8.50009C12.7448 7.25561 14.5892 4.47138 14.5892 1.40677L17.4107 1.40491C17.4107 4.47138 19.2541 7.25561 22.1082 8.50009C24.0122 9.33005 25.6749 10.5261 27.0516 12.0565Z" fill="#054D3E"/>
</g>
</g>
</svg>
