<svg width="24" height="24" viewBox="0 0 24 24" fill="none" xmlns="http://www.w3.org/2000/svg">
<g id="home-office">
<path id="Vector" d="M3 3C1.895 3 1 3.895 1 5V17C1 18.105 1.895 19 3 19H8V20C8 20.552 8.448 21 9 21H13.3809C13.1489 20.596 12.9833 20.1461 12.9023 19.6621L12.5977 17.8359C12.5177 17.3529 12.0993 17 11.6113 17H3V5H21V6.04492C21 6.60492 21.4664 7.0513 22.0254 7.0293C22.0344 7.0293 22.0447 7.02734 22.0547 7.02734C22.5837 7.00734 23 6.57197 23 6.04297V5C23 3.895 22.105 3 21 3H3ZM16.1074 6.01172C15.9889 6.05847 15.9637 6.25542 16.0547 6.60742C16.238 7.31544 16.5506 8.65013 16.7676 10.416C16.0775 9.65364 15.239 9.26739 14.6465 9.08789C14.0725 8.91389 13.6479 8.91211 14.4199 9.91211C14.9288 10.5708 15.6292 11.6921 15.8906 13H15C14.382 13 13.9117 13.5541 14.0117 14.1641L14.873 19.3301C15.036 20.2971 15.8657 21 16.8457 21H19.1523C20.1333 21 20.963 20.2971 21.125 19.3281L21.9863 14.1641C22.0883 13.5551 21.618 13 21 13H20.1094C20.3708 11.6921 21.0712 10.5708 21.5801 9.91211C22.3521 8.91211 21.9275 8.91389 21.3535 9.08789C20.7943 9.25731 20.0194 9.62257 19.3535 10.3027C18.6414 8.33391 17.4961 6.98123 16.7246 6.31641C16.4376 6.06841 16.2259 5.96497 16.1074 6.01172Z" fill="#898C80"/>
</g>
</svg>
