<svg width="24" height="24" viewBox="0 0 24 24" fill="none" xmlns="http://www.w3.org/2000/svg">
<g id="kitchen-room">
<path id="Vector" d="M5.65039 1C5.29339 1 4.96487 1.19672 4.79688 1.51172L2.0918 6.57617C1.7468 7.22117 2.21236 8 2.94336 8H11.0566C11.7876 8 12.2542 7.22117 11.9102 6.57617L9.20312 1.51172C9.03413 1.19672 8.70661 1 8.34961 1H5.65039ZM1.91797 10C1.41097 10 1 10.411 1 10.918V22.084C1 22.59 1.41097 23 1.91797 23H22.084C22.59 23 23 22.589 23 22.082V10.918C23 10.411 22.589 10 22.082 10H1.91797ZM13.918 12H20.084C20.59 12 21 12.411 21 12.918V14.084C21 14.59 20.589 15 20.082 15H13.916C13.41 15 13 14.589 13 14.082V12.916C13 12.41 13.411 12 13.918 12ZM5.91797 14H8.08398C8.58998 14 9 14.411 9 14.918V15.084C9 15.59 8.58903 16 8.08203 16H5.91797C5.41097 16 5 15.589 5 15.082V14.916C5 14.41 5.41097 14 5.91797 14ZM13.918 17H20.084C20.59 17 21 17.411 21 17.918V20.084C21 20.59 20.589 21 20.082 21H13.916C13.41 21 13 20.589 13 20.082V17.916C13 17.41 13.411 17 13.918 17Z" fill="#054D3E"/>
</g>
</svg>
