<svg width="33" height="32" viewBox="0 0 33 32" fill="none" xmlns="http://www.w3.org/2000/svg">
<g id="mdi:language">
<path id="Vector" d="M17.7399 20.0934L14.3532 16.7467L14.3932 16.7067C16.6521 14.1962 18.3397 11.2257 19.3399 8.00002H23.2465V5.33335H13.9132V2.66669H11.2465V5.33335H1.91321V8.00002H16.8065C15.9132 10.56 14.4999 13 12.5799 15.1334C11.3399 13.76 10.3132 12.2534 9.49987 10.6667H6.83321C7.80654 12.84 9.13987 14.8934 10.8065 16.7467L4.01987 23.44L5.91321 25.3334L12.5799 18.6667L16.7265 22.8134L17.7399 20.0934ZM25.2465 13.3334H22.5799L16.5799 29.3334H19.2465L20.7399 25.3334H27.0732L28.5799 29.3334H31.2465L25.2465 13.3334ZM21.7532 22.6667L23.9132 16.8934L26.0732 22.6667H21.7532Z" fill="#FEFFF8"/>
</g>
</svg>
