<svg width="24" height="24" viewBox="0 0 24 24" fill="none" xmlns="http://www.w3.org/2000/svg">
<g id="living-room">
<path id="Vector" d="M8 3C5.19922 3 3 5.19922 3 8C5.30078 8 7 8.60156 7 12C7 12.8984 7.39844 14 9 14H15C16.6016 14 17 12.8984 17 12C17 8.60156 18.8984 8 21 8C21 5.19922 18.8008 3 16 3H8ZM3 9C1.34375 9 0 10.3438 0 12C0 13.6562 1.34375 15 3 15C3 15.0625 2.99609 15.125 3 15.1875V19H21V15.1875C21.0039 15.125 21 15.0625 21 15C22.6562 15 24 13.6562 24 12C24 10.3438 22.6562 9 21 9C19.3438 9 18 10.3438 18 12C18 12 18 15 16 15H8C6 15 6 12 6 12C6 10.3438 4.65625 9 3 9ZM3 20V22H6V20H3ZM18 20V22H21V20H18Z" fill="#054D3E"/>
</g>
</svg>
