<svg width="32" height="33" viewBox="0 0 32 33" fill="none" xmlns="http://www.w3.org/2000/svg">
<g id="8678281_chat_line_message_communication_icon 1" clip-path="url(#clip0_25_59)">
<g id="Group">
<path id="Vector" d="M9.72143 28.449L2.66676 30.017L4.23476 22.9623C3.20214 21.0309 2.66347 18.8739 2.66676 16.6837C2.66676 9.31967 8.6361 3.35034 16.0001 3.35034C23.3641 3.35034 29.3334 9.31967 29.3334 16.6837C29.3334 24.0477 23.3641 30.017 16.0001 30.017C13.8099 30.0203 11.6529 29.4816 9.72143 28.449ZM10.1081 25.6317L10.9788 26.0983C12.5235 26.9239 14.2486 27.354 16.0001 27.3503C18.1098 27.3503 20.1721 26.7248 21.9262 25.5527C23.6803 24.3806 25.0475 22.7147 25.8548 20.7656C26.6621 18.8166 26.8734 16.6718 26.4618 14.6027C26.0502 12.5336 25.0343 10.633 23.5426 9.1412C22.0508 7.64944 20.1502 6.63354 18.0811 6.22197C16.0119 5.81039 13.8672 6.02163 11.9181 6.82896C9.96906 7.63629 8.30316 9.00347 7.13109 10.7576C5.95902 12.5117 5.33343 14.574 5.33343 16.6837C5.33343 18.4623 5.76676 20.1743 6.58676 21.705L7.0521 22.5757L6.17876 26.505L10.1081 25.6317Z" fill="#07735E"/>
</g>
</g>
<defs>
<clipPath id="clip0_25_59">
<rect width="32" height="32" fill="white" transform="translate(0 0.683655)"/>
</clipPath>
</defs>
</svg>
