<svg width="32" height="33" viewBox="0 0 32 33" fill="none" xmlns="http://www.w3.org/2000/svg">
<g id="8680209_notification_2_line_icon 1" clip-path="url(#clip0_20_738)">
<g id="Group">
<path id="Vector" d="M29.3334 27.3503H2.66675V24.6837H4.00008V15.3917C4.00008 8.74101 9.37341 3.35034 16.0001 3.35034C22.6267 3.35034 28.0001 8.74101 28.0001 15.3917V24.6837H29.3334V27.3503ZM6.66675 24.6837H25.3334V15.3917C25.3334 10.2143 21.1547 6.01701 16.0001 6.01701C10.8454 6.01701 6.66675 10.2143 6.66675 15.3917V24.6837ZM12.6667 28.6837H19.3334C19.3334 29.5677 18.9822 30.4156 18.3571 31.0407C17.732 31.6658 16.8841 32.017 16.0001 32.017C15.116 32.017 14.2682 31.6658 13.6431 31.0407C13.0179 30.4156 12.6667 29.5677 12.6667 28.6837Z" fill="#07735E"/>
</g>
</g>
<defs>
<clipPath id="clip0_20_738">
<rect width="32" height="32" fill="white" transform="translate(0 0.683655)"/>
</clipPath>
</defs>
</svg>
