<svg width="25" height="24" viewBox="0 0 25 24" fill="none" xmlns="http://www.w3.org/2000/svg">
<g id="ph:eye-fill" clip-path="url(#clip0_868_3592)">
<path id="Vector" d="M24.0264 11.6962C23.9936 11.6222 23.1995 9.86062 21.4342 8.09531C19.082 5.74312 16.1111 4.5 12.8411 4.5C9.57106 4.5 6.60013 5.74312 4.24794 8.09531C2.48263 9.86062 1.68481 11.625 1.65575 11.6962C1.61311 11.7922 1.59107 11.896 1.59107 12.0009C1.59107 12.1059 1.61311 12.2097 1.65575 12.3056C1.68856 12.3797 2.48263 14.1403 4.24794 15.9056C6.60013 18.2569 9.57106 19.5 12.8411 19.5C16.1111 19.5 19.082 18.2569 21.4342 15.9056C23.1995 14.1403 23.9936 12.3797 24.0264 12.3056C24.069 12.2097 24.0911 12.1059 24.0911 12.0009C24.0911 11.896 24.069 11.7922 24.0264 11.6962ZM12.8411 15.75C12.0994 15.75 11.3744 15.5301 10.7577 15.118C10.141 14.706 9.66034 14.1203 9.37651 13.4351C9.09269 12.7498 9.01842 11.9958 9.16312 11.2684C9.30781 10.541 9.66497 9.8728 10.1894 9.34835C10.7139 8.8239 11.382 8.46675 12.1095 8.32205C12.8369 8.17736 13.5909 8.25162 14.2761 8.53545C14.9613 8.81928 15.547 9.29993 15.9591 9.91661C16.3711 10.5333 16.5911 11.2583 16.5911 12C16.5911 12.9946 16.196 13.9484 15.4927 14.6517C14.7895 15.3549 13.8356 15.75 12.8411 15.75Z" fill="#898C80"/>
</g>
<defs>
<clipPath id="clip0_868_3592">
<rect width="24" height="24" fill="white" transform="translate(0.841064)"/>
</clipPath>
</defs>
</svg>
