<svg width="33" height="32" viewBox="0 0 33 32" fill="none" xmlns="http://www.w3.org/2000/svg">
<g id="Projects">
<path id="Vector" d="M7.3335 4C5.1402 4 3.3335 5.80671 3.3335 8V24C3.3335 26.1933 5.1402 28 7.3335 28H30.0002V6.66667H11.3335V4H7.3335ZM7.3335 6.66667H8.66683V20H7.3335C6.8157 20 6.45618 20.372 6.00016 20.5547V8C6.00016 7.24663 6.58012 6.66667 7.3335 6.66667ZM11.3335 9.33333H27.3335V25.3333H7.3335C6.58012 25.3333 6.00016 24.7534 6.00016 24C6.00016 23.2466 6.58012 22.6667 7.3335 22.6667H11.3335V9.33333ZM14.0002 12V22.6667H24.6668V12H20.6668V14.6667H22.0002V20H20.6668V17.3333H18.0002V20H16.6668V14.6667H18.0002V12H14.0002Z" fill="#054D3E"/>
</g>
</svg>
