<svg width="40" height="40" viewBox="0 0 40 40" fill="none" xmlns="http://www.w3.org/2000/svg">
<g id="2315958_accomodation_cabin_hotel_villa_icon 1">
<g id="Layer_4">
<g id="Group">
<path id="Vector" d="M20.0051 0.0433276L20.0026 0.0358276L19.9976 0.039161L19.9909 0.0358276L19.9884 0.0433276L2.88843 6.80916V9.43999V9.74749V12.3783L2.93176 12.4875L19.9976 5.73333L36.6068 12.3083L36.6134 12.31L37.0609 12.4875L37.0668 12.4725L37.1109 12.4875V12.3625V12.0783V9.85916V9.73249V9.44749V9.44166V6.81333L20.0051 0.0433276Z" fill="#898C80"/>
<path id="Vector_2" d="M34.2609 19.1642V18.6417V17.1175V16.49V14.2975L20.0001 8.66083L5.74093 14.2983V16.4908V17.1183V18.6425V19.1642V37.1208H2.88843V39.9642H5.74009H34.2609H37.1109V37.1208H34.2609V19.1642ZM20.0001 37.1133H8.59259V20.0017H20.0001V37.1133ZM31.4068 28.5642H22.8509V20.01H31.4068V28.5642Z" fill="#898C80"/>
</g>
</g>
</g>
</svg>
