<svg width="24" height="24" viewBox="0 0 24 24" fill="none" xmlns="http://www.w3.org/2000/svg">
<g id="washing-machine">
<path id="Vector" d="M20.1016 0H3.89844C2.89844 0 2 0.898438 2 1.89844V22.1016C2 23.1016 2.89844 24 3.89844 24H20.1016C21.1992 24 22 23.1016 22 22.1016V1.89844C22 0.898438 21.1016 0 20.1016 0ZM12 18C8.69922 18 6 15.3008 6 12C6 8.69922 8.69922 6 12 6C15.3008 6 18 8.69922 18 12C18 15.3008 15.3008 18 12 18ZM12 17C9.19922 17 7 14.8008 7 12C7 12 8 11.1992 9 11.1992C10 11.1992 11 12 12 12C12.8984 12 13.8984 11.1992 15 11.1992C16.1016 11.1992 17 12 17 12C17 14.8008 14.8008 17 12 17ZM20 3C20 3.60156 19.6016 4 19 4C18.3984 4 18 3.60156 18 3C18 2.39844 18.3984 2 19 2C19.6016 2 20 2.39844 20 3ZM17 3C17 3.60156 16.6016 4 16 4C15.3984 4 15 3.60156 15 3C15 2.39844 15.3984 2 16 2C16.6016 2 17 2.39844 17 3Z" fill="#898C80"/>
</g>
</svg>
